<svg width="519" height="482" viewBox="0 0 519 482" fill="none" xmlns="http://www.w3.org/2000/svg">
<path opacity="0.2" d="M485.428 408.161H427.727V375.654H485.428V408.161ZM430.165 405.723H482.989V378.092H430.165V405.723Z" fill="#EB6A2C"/>
<path opacity="0.2" d="M66.0799 408.161H8.37891V375.654H66.0799V408.161ZM10.817 405.723H63.6418V378.092H10.817V405.723Z" fill="#EB6A2C"/>
<g opacity="0.7">
<path opacity="0.7" d="M115.743 358.49C115.743 358.49 45.3319 332.744 35.6934 368.982L62.6991 437.63L65.5922 481.515H124.423V444.302C124.423 444.302 115.743 407.113 137.93 384.236L115.743 358.49Z" fill="url(#paint0_linear)"/>
<g opacity="0.1">
<path opacity="0.1" d="M127.536 154.196C124.545 153.204 120.945 152.318 118.507 154.293C117.093 155.439 116.483 157.284 115.386 158.731C111.737 163.517 104.382 162.623 98.5713 164.338C90.03 166.857 84.7556 175.318 81.7324 183.607C68.3555 220.178 83.2684 262.007 71.6225 299.147C68.193 310.078 62.5854 322.211 68.1279 332.264C69.9727 335.621 73.0041 338.416 73.898 342.122C75.1496 347.153 72.7359 353.752 76.9538 356.816C78.2703 357.766 79.9363 358.067 81.5129 358.441C91.0052 360.944 98.1975 368.331 105.43 374.898C112.663 381.465 121.359 387.82 131.168 387.389C134.338 387.127 137.468 386.506 140.498 385.536L189.178 371.98C194.054 370.623 199.353 368.982 202.181 364.821C203.912 362.277 204.457 359.132 204.896 356.109C206.575 344.556 207.371 332.893 207.277 321.22C207.277 317.368 207.098 313.426 205.651 309.842C204.026 305.706 200.775 302.398 198.41 298.619C193.843 291.305 192.616 282.52 191.486 274.011C189.69 260.463 187.894 246.647 190.381 233.205C191.446 227.435 193.282 221.828 194.501 216.098C196.476 206.764 196.79 197.154 195.428 187.711C194.29 179.869 191.852 171.912 186.488 166.012C182.978 162.081 178.208 159.495 172.997 158.698C166.415 157.885 163.14 161.673 157.272 163.087C148.592 165.256 135.882 156.951 127.536 154.196Z" fill="url(#paint1_linear)"/>
</g>
<path opacity="0.7" d="M127.536 152.253C124.545 151.262 120.945 150.376 118.507 152.351C117.093 153.497 116.483 155.342 115.386 156.788C111.737 161.575 104.382 160.681 98.5713 162.396C90.03 164.915 84.7556 173.375 81.7324 181.665C68.3555 218.236 83.2684 260.065 71.6225 297.205C68.193 308.135 62.5854 320.269 68.1279 330.322C69.9727 333.678 73.0041 336.474 73.898 340.18C75.1496 345.21 72.7359 351.809 76.9538 354.873C78.2703 355.824 79.9363 356.125 81.5129 356.499C91.0052 359.002 98.1975 366.389 105.43 372.956C112.663 379.522 121.343 385.951 131.168 385.495C134.338 385.234 137.468 384.612 140.498 383.642L189.178 370.087C194.054 368.73 199.353 367.088 202.181 362.927C203.912 360.383 204.457 357.238 204.896 354.215C206.575 342.663 207.371 330.999 207.277 319.326C207.277 315.474 207.098 311.533 205.651 307.949C204.026 303.812 200.775 300.504 198.41 296.725C193.843 289.411 192.616 280.626 191.486 272.117C189.69 258.569 187.894 244.754 190.381 231.312C191.446 225.542 193.282 219.934 194.501 214.205C196.476 204.87 196.79 195.261 195.428 185.817C194.29 177.975 191.852 170.019 186.488 164.119C182.978 160.187 178.208 157.601 172.997 156.804C166.415 155.992 163.14 159.779 157.272 161.193C148.592 163.306 135.882 155.049 127.536 152.253Z" fill="url(#paint2_linear)"/>
<path opacity="0.7" d="M113.817 80.0786C113.817 80.0786 114.784 116.308 103.211 115.357C91.6385 114.407 135.971 175.423 135.971 175.423L173.582 155.399C173.582 155.399 151.412 120.128 166.853 98.1935C182.294 76.259 113.817 80.0786 113.817 80.0786Z" fill="url(#paint3_linear)"/>
<g opacity="0.1">
<path opacity="0.1" d="M49.1916 388.048C49.1916 388.048 41.4792 440.491 22.1859 426.187C2.89266 411.884 5.78584 388.048 5.78584 388.048C5.78584 388.048 43.4053 286.981 41.4792 271.719C39.5531 256.457 105.682 137.869 105.682 137.869L130.176 332.744C130.176 332.744 56.904 359.441 49.1916 388.048Z" fill="url(#paint4_linear)"/>
</g>
<path opacity="0.7" d="M47.2658 388.048C47.2658 388.048 39.5534 440.491 20.2601 426.187C0.966882 411.884 3.86006 388.048 3.86006 388.048C3.86006 388.048 41.4795 286.981 39.5453 271.719C37.6111 256.457 103.748 137.869 103.748 137.869L128.242 332.744C128.242 332.744 54.9783 359.441 47.2658 388.048Z" fill="url(#paint5_linear)"/>
<path opacity="0.7" d="M115.743 102.964C115.743 102.964 78.1239 128.686 63.6417 127.751L52.4023 130.807C41.2885 133.787 31.2298 139.817 23.3628 148.214C15.4958 156.611 10.1339 167.04 7.8831 178.325L7.70431 179.235C1.93421 209.751 0 293.662 0 293.662C0 293.662 0.967091 315.604 10.6056 321.293L72.37 363.244C72.37 363.244 70.444 317.481 93.5894 312.711C116.735 307.941 87.803 310.801 87.803 310.801L45.3644 286.014C45.3644 286.014 46.3315 248.825 57.9042 236.44C69.4769 224.055 109.989 159.235 109.989 159.235L98.4168 119.193L115.743 102.964Z" fill="url(#paint6_linear)"/>
<g opacity="0.1">
<path opacity="0.1" d="M157.215 127.751C157.215 127.751 180.905 133.952 197.492 136.983C200.076 137.445 202.515 138.51 204.611 140.092C206.706 141.673 208.399 143.727 209.552 146.085C214.558 156.415 222.19 175.098 220.873 190.678L235.339 246.932L276.786 296.506L239.183 313.678L196.76 266.957L231.479 355.629L166.853 358.49C166.853 358.49 147.56 215.456 152.388 191.637L157.215 127.751Z" fill="url(#paint7_linear)"/>
</g>
<path opacity="0.7" d="M159.141 127.751C159.141 127.751 182.831 133.952 199.418 136.983C202.003 137.445 204.442 138.51 206.537 140.092C208.633 141.673 210.326 143.727 211.479 146.085C216.485 156.415 224.116 175.098 222.799 190.678L237.265 246.932L278.713 296.506L241.101 313.67L198.663 266.949L233.413 355.629L168.788 358.49C168.788 358.49 149.495 215.456 154.322 191.637L159.141 127.751Z" fill="url(#paint8_linear)"/>
<path opacity="0.7" d="M112.574 99.9248L125.87 164.461L104.171 175.424L92.2812 117.292L112.574 99.9248Z" fill="url(#paint9_linear)"/>
<path opacity="0.7" d="M149.015 169.231L159.141 127.751L172.168 152.067L165.415 172.091L149.015 169.231Z" fill="url(#paint10_linear)"/>
<path opacity="0.1" d="M185.667 181.624C185.667 181.624 185.667 246.46 194.347 251.223L185.667 181.624Z" fill="url(#paint11_linear)"/>
<path opacity="0.1" d="M61.2446 197.829C61.2446 197.829 41.2281 261.682 46.8925 268.371L61.2446 197.829Z" fill="url(#paint12_linear)"/>
<path opacity="0.1" d="M57.3926 285.535C57.3926 285.535 95.9791 310.476 101.278 310.874L57.3926 285.535Z" fill="url(#paint13_linear)"/>
<g opacity="0.1">
<path opacity="0.1" d="M114.776 83.8903C114.776 83.8903 114.922 89.4735 114.402 96.1944C117.842 104.176 123.55 110.971 130.817 115.739C138.083 120.506 146.59 123.036 155.281 123.013C157.662 123.011 160.04 122.821 162.392 122.444C162.14 115.309 163.513 108.149 167.82 102.038C183.253 80.0788 114.776 83.8903 114.776 83.8903Z" fill="url(#paint14_linear)"/>
</g>
<path opacity="0.7" d="M154.322 119.177C178.824 119.177 198.687 99.5401 198.687 75.3164C198.687 51.0927 178.824 31.4556 154.322 31.4556C129.82 31.4556 109.957 51.0927 109.957 75.3164C109.957 99.5401 129.82 119.177 154.322 119.177Z" fill="url(#paint15_linear)"/>
<g opacity="0.1">
<path opacity="0.1" d="M182.473 56.8765C187.845 57.5917 194.664 55.82 195.728 50.5538C197.037 43.906 188.04 39.5825 186.65 32.9428C186.13 30.456 186.748 27.8554 186.447 25.3279C185.846 20.2405 181.685 16.3233 177.451 13.3651C164.007 4.05727 147.721 -0.234156 131.436 1.23975C129.421 1.42667 127.3 1.75176 125.747 3.02768C123.976 4.46614 123.309 6.80669 122.082 8.71651C117.921 15.3643 108.575 16.1445 101.871 20.2892C94.0282 25.1653 90.1435 34.6494 89.794 43.7841C89.4446 52.9187 92.0777 61.8827 94.6702 70.6597C96.8888 78.1202 99.2131 85.7839 104.081 91.8953C108.949 98.0068 117.027 102.273 124.675 100.437C121.172 97.9417 123.716 92.1473 127.511 90.1155C131.306 88.0838 136.02 87.7343 139.262 84.9306C142.505 82.1268 143.48 77.5351 144.537 73.3579C145.87 68.0916 147.788 62.7441 151.689 58.9001C159.336 51.3746 173.111 55.6331 182.473 56.8765Z" fill="url(#paint16_linear)"/>
</g>
<path opacity="0.7" d="M181.482 55.9255C186.854 56.6407 193.672 54.869 194.737 49.6028C196.045 42.955 187.049 38.6315 185.659 31.9918C185.139 29.505 185.756 26.9044 185.456 24.3769C184.854 19.2895 180.693 15.3723 176.459 12.4141C163.025 3.11084 146.752 -1.18312 130.477 0.280657C128.462 0.467575 126.341 0.792649 124.788 2.06857C123.017 3.50703 122.35 5.84758 121.123 7.7574C116.962 14.4052 107.616 15.1854 100.912 19.3301C93.0692 24.2062 89.1845 33.6903 88.8351 42.825C88.4856 51.9596 91.1187 60.9236 93.7112 69.7006C95.9298 77.1611 98.2541 84.8248 103.122 90.9362C107.99 97.0476 116.068 101.314 123.716 99.4776C120.213 96.9826 122.757 91.1881 126.552 89.1564C130.347 87.1247 135.061 86.7753 138.303 83.9715C141.546 81.1677 142.521 76.576 143.578 72.3988C144.911 67.1325 146.829 61.785 150.73 57.941C158.369 50.4236 172.144 54.674 181.482 55.9255Z" fill="url(#paint17_linear)"/>
<g opacity="0.1">
<path opacity="0.1" d="M146.65 81.2328C146 85.7676 144.553 93.6182 141.831 98.5757C138.231 105.027 135.151 111.756 132.623 118.698C132.623 118.698 150.388 132.294 159.442 141.583C162.229 144.501 165.795 146.556 169.717 147.506C173.638 148.455 177.75 148.258 181.563 146.939C186.269 145.248 190.389 141.981 191.486 135.854C193.209 126.191 191.161 118.901 189.227 114.586C188.295 112.547 187.807 110.333 187.795 108.091C187.784 105.849 188.25 103.631 189.162 101.583C189.828 100.12 190.608 98.9739 191.478 98.6894C191.478 98.6894 174.119 94.8779 173.152 99.6403C172.185 104.403 158.686 109.173 155.793 100.591L154.98 81.6717C154.93 80.5995 154.467 79.5882 153.689 78.8491C152.91 78.11 151.876 77.7004 150.803 77.7058C149.802 77.696 148.832 78.0473 148.069 78.6951C147.306 79.3429 146.802 80.2438 146.65 81.2328Z" fill="url(#paint18_linear)"/>
</g>
<path opacity="0.7" d="M146.65 82.1913C146 86.7261 144.553 94.5767 141.831 99.5341C138.231 105.986 135.151 112.714 132.623 119.656C132.623 119.656 150.388 133.253 159.442 142.542C162.229 145.459 165.795 147.515 169.717 148.464C173.638 149.414 177.75 149.217 181.563 147.897C186.269 146.207 190.389 142.94 191.486 136.812C193.209 127.149 191.161 119.859 189.227 115.544C188.295 113.505 187.807 111.291 187.795 109.05C187.784 106.808 188.25 104.589 189.162 102.541C189.828 101.078 190.608 99.9323 191.478 99.6479C191.478 99.6479 174.119 95.8364 173.152 100.599C172.185 105.361 158.686 110.132 155.793 101.55L154.98 82.6302C154.93 81.5579 154.467 80.5466 153.689 79.8076C152.91 79.0685 151.876 78.6589 150.803 78.6643C149.802 78.6545 148.832 79.0057 148.069 79.6535C147.306 80.3013 146.802 81.2023 146.65 82.1913Z" fill="url(#paint19_linear)"/>
</g>
<path d="M116.686 357.864C116.686 357.864 49.0944 332.866 39.8379 368.047L65.7627 434.688L68.5177 477.33H125V441.205C125 441.205 116.67 405.098 138.003 382.871L116.686 357.864Z" fill="#757575"/>
<path opacity="0.1" d="M128.007 159.479C125.138 158.52 121.676 157.658 119.344 159.576C117.987 160.689 117.401 162.477 116.345 163.883C112.842 168.532 105.78 167.662 100.205 169.328C92.0048 171.766 86.9499 179.991 84.0405 188.02C71.2 223.527 85.5114 264.161 74.3369 300.22C71.0862 310.834 65.6655 322.618 70.9805 332.378C72.7522 335.629 75.6372 338.352 76.5231 341.952C77.7259 346.828 75.4097 353.248 79.4569 356.223C80.7165 357.149 82.3175 357.434 83.8292 357.848C92.9394 360.286 99.8473 367.454 106.788 373.834C113.728 380.213 122.082 386.382 131.493 385.967C134.532 385.713 137.532 385.11 140.433 384.171L187.163 371.005C191.852 369.681 196.915 368.088 199.654 364.049C201.279 361.611 201.84 358.539 202.262 355.589C203.874 344.369 204.638 333.043 204.546 321.708C204.546 317.969 204.375 314.142 203.002 310.663C201.377 306.649 198.321 303.438 196.045 299.757C191.665 292.67 190.478 284.121 189.398 275.856C187.675 262.698 185.952 249.281 188.333 236.229C189.357 230.63 191.12 225.185 192.291 219.618C194.188 210.551 194.491 201.222 193.185 192.051C192.096 184.436 189.747 176.708 184.611 170.978C181.256 167.169 176.672 164.655 171.657 163.875C165.334 163.063 162.189 166.768 156.557 168.142C148.227 170.182 136.02 162.16 128.007 159.479Z" fill="black"/>
<path d="M128.007 157.626C125.138 156.667 121.676 155.805 119.344 157.723C117.987 158.836 117.401 160.624 116.345 162.03C112.842 166.679 105.78 165.809 100.205 167.475C92.0048 169.913 86.9499 178.138 84.0405 186.167C71.2 221.674 85.5114 262.308 74.3369 298.367C71.0862 308.981 65.6655 320.765 70.9805 330.525C72.7522 333.776 75.6372 336.499 76.5231 340.099C77.7259 344.975 75.4097 351.395 79.4569 354.37C80.7165 355.296 82.3175 355.581 83.8292 355.995C92.9394 358.433 99.8473 365.601 106.788 371.981C113.728 378.36 122.082 384.529 131.493 384.114C134.532 383.86 137.532 383.257 140.433 382.318L187.171 369.161C191.86 367.836 196.923 366.243 199.662 362.204C201.287 359.766 201.848 356.694 202.271 353.744C203.883 342.524 204.646 331.198 204.554 319.863C204.554 316.124 204.384 312.297 203.01 308.818C201.385 304.804 198.329 301.594 196.053 297.912C191.673 290.825 190.487 282.276 189.406 274.011C187.683 260.853 185.96 247.436 188.341 234.384C189.365 228.785 191.129 223.34 192.299 217.773C194.196 208.706 194.499 199.377 193.193 190.206C192.104 182.591 189.755 174.863 184.619 169.133C181.274 165.32 176.699 162.798 171.689 162.006C165.366 161.193 162.221 164.899 156.589 166.273C148.227 168.337 136.02 160.307 128.007 157.626Z" fill="#E0E0E0"/>
<path d="M114.841 87.5066C114.841 87.5066 115.768 122.688 104.658 121.761C93.5487 120.835 136.142 180.096 136.142 180.096L172.25 160.649C172.25 160.649 150.957 126.394 165.748 105.093C180.539 83.7926 114.841 87.5066 114.841 87.5066Z" fill="#FDA57D"/>
<path opacity="0.1" d="M52.8001 386.577C52.8001 386.577 45.3965 437.5 26.8753 423.611C8.35406 409.722 11.1335 386.577 11.1335 386.577C11.1335 386.577 47.2413 288.428 45.3883 273.613C43.5354 258.797 107.055 143.623 107.055 143.623L130.566 332.866C130.566 332.866 60.2037 358.799 52.8001 386.577Z" fill="black"/>
<path d="M50.9476 386.577C50.9476 386.577 43.5439 437.5 25.0227 423.611C6.50155 409.722 9.28093 386.577 9.28093 386.577C9.28093 386.577 45.3888 288.428 43.5358 273.613C41.6829 258.797 105.203 143.623 105.203 143.623L128.714 332.866C128.714 332.866 58.3512 358.799 50.9476 386.577Z" fill="#88194E"/>
<path d="M116.686 109.726C116.686 109.726 80.578 134.724 66.6892 133.797L55.8966 136.764C45.1806 139.709 35.5007 145.59 27.9489 153.743C20.3972 161.897 15.274 171.998 13.1573 182.908L12.9866 183.794C7.42783 213.425 5.58301 294.905 5.58301 294.905C5.58301 294.905 6.50947 316.198 15.766 321.724L75.0192 362.505C75.0192 362.505 73.1663 318.059 95.3934 313.434C117.62 308.81 89.8346 311.581 89.8346 311.581L49.0944 287.501C49.0944 287.501 50.0209 251.394 61.1304 239.358C72.2398 227.322 111.127 164.363 111.127 164.363L100.018 125.435L116.686 109.726Z" fill="#88194E"/>
<path opacity="0.1" d="M156.5 133.806C156.5 133.806 179.255 139.828 195.168 142.745C197.657 143.202 200.004 144.241 202.015 145.777C204.026 147.314 205.646 149.305 206.74 151.587C211.543 161.624 218.866 179.755 217.606 194.887L231.495 249.516L271.317 297.66L235.201 314.353L194.485 268.989L227.805 355.134L165.764 357.864C165.764 357.864 147.243 218.976 151.876 195.83L156.5 133.806Z" fill="black"/>
<path d="M158.353 133.806C158.353 133.806 181.108 139.828 197.02 142.745C199.51 143.202 201.857 144.241 203.868 145.777C205.879 147.314 207.498 149.305 208.593 151.587C213.396 161.624 220.718 179.755 219.459 194.887L233.348 249.516L273.169 297.66L237.062 314.328L196.321 268.956L229.642 355.101L167.609 357.864C167.609 357.864 149.088 218.976 153.72 195.83L158.353 133.806Z" fill="#88194E"/>
<path d="M113.646 106.784L126.414 169.45L105.576 180.096L94.166 123.647L113.646 106.784Z" fill="#E0E0E0"/>
<path d="M148.633 174.083L158.353 133.806L170.852 157.414L164.375 176.862L148.633 174.083Z" fill="#E0E0E0"/>
<path opacity="0.1" d="M183.814 186.118C183.814 186.118 183.814 249.077 192.145 253.71L183.814 186.118Z" fill="black"/>
<path opacity="0.1" d="M64.3735 201.828C64.3735 201.828 45.1534 263.836 50.5578 270.329L64.3735 201.828Z" fill="black"/>
<path opacity="0.1" d="M60.667 287.038C60.667 287.038 97.7094 311.256 102.797 311.646L60.667 287.038Z" fill="black"/>
<path opacity="0.1" d="M115.76 91.2124C115.76 91.2124 115.906 96.633 115.402 103.159C119.119 111.951 125.681 119.24 134.035 123.857C142.389 128.474 152.052 130.151 161.474 128.621C161.23 121.688 162.555 114.74 166.683 108.799C181.482 87.5065 115.76 91.2124 115.76 91.2124Z" fill="black"/>
<path d="M153.72 125.475C177.244 125.475 196.313 106.406 196.313 82.8821C196.313 59.3586 177.244 40.2891 153.72 40.2891C130.197 40.2891 111.127 59.3586 111.127 82.8821C111.127 106.406 130.197 125.475 153.72 125.475Z" fill="#FDA57D"/>
<path opacity="0.1" d="M180.743 64.979C185.903 65.6697 192.478 63.9468 193.469 58.8432C194.729 52.3823 186.09 48.1888 184.757 41.7767C184.253 39.3386 184.855 36.8355 184.562 34.3893C183.985 29.4482 179.987 25.6448 175.923 22.776C163.056 13.7512 147.405 9.58152 131.754 11.0082C129.819 11.1951 127.78 11.504 126.284 12.7393C124.586 14.1371 123.927 16.4045 122.765 18.2818C118.767 24.7346 109.762 25.4985 103.366 29.5213C95.8328 34.2268 92.1106 43.4671 91.7693 52.3416C91.428 61.2162 93.9636 69.9201 96.4667 78.4371C98.5959 85.6863 100.831 93.1224 105.504 99.0551C110.177 104.988 117.938 109.132 125.268 107.344C121.904 104.906 124.35 99.2907 127.991 97.324C131.632 95.3573 136.118 95.016 139.279 92.2853C142.441 89.5547 143.343 85.1012 144.342 81.0458C145.626 75.9259 147.479 70.7409 151.209 67.0026C158.54 59.6071 171.73 63.768 180.743 64.979Z" fill="black"/>
<path d="M179.856 64.0522C185.017 64.743 191.591 63.0201 192.583 57.9164C193.842 51.4555 185.204 47.262 183.871 40.8499C183.367 38.4118 183.968 35.9087 183.676 33.4625C183.058 28.4807 179.043 24.6611 174.98 21.8085C162.12 12.7865 146.479 8.61421 130.835 10.0327C128.9 10.2196 126.861 10.5284 125.365 11.7637C123.667 13.1615 123.008 15.4289 121.846 17.3063C117.848 23.759 108.843 24.5229 102.447 28.5458C94.9138 33.2512 91.1917 42.4915 90.8503 51.3661C90.509 60.2406 93.0446 68.9446 95.5477 77.4616C97.6769 84.7108 99.9118 92.1469 104.585 98.0795C109.258 104.012 117.019 108.157 124.349 106.369C120.985 103.931 123.431 98.3152 127.072 96.3485C130.713 94.3818 135.199 94.0404 138.36 91.3098C141.522 88.5792 142.424 84.1256 143.423 80.0703C144.707 74.9503 146.56 69.7654 150.29 66.027C157.613 58.7047 170.835 62.8575 179.856 64.0522Z" fill="black"/>
<path opacity="0.1" d="M146.357 88.6285C145.731 93.0333 144.342 100.656 141.725 105.467C138.267 111.725 135.311 118.247 132.883 124.972C132.883 124.972 149.949 138.178 158.604 147.199C161.261 150.027 164.682 152.024 168.451 152.948C172.22 153.871 176.177 153.681 179.84 152.4C184.359 150.775 188.316 147.581 189.365 141.64C190.99 132.254 189.056 125.175 187.203 120.982C186.315 118.999 185.853 116.851 185.847 114.679C185.842 112.506 186.292 110.356 187.17 108.369C187.813 106.947 188.56 105.841 189.397 105.557C189.397 105.557 172.729 101.851 171.803 106.483C170.876 111.116 157.914 115.74 155.134 107.41L154.37 89.0349C154.328 87.9985 153.887 87.0187 153.139 86.3006C152.39 85.5825 151.393 85.1819 150.356 85.1827C149.385 85.1752 148.444 85.5204 147.709 86.1542C146.973 86.788 146.493 87.6672 146.357 88.6285Z" fill="black"/>
<path d="M146.357 89.5544C145.731 93.9592 144.342 101.582 141.725 106.393C138.267 112.651 135.311 119.173 132.883 125.898C132.883 125.898 149.949 139.104 158.604 148.125C161.261 150.953 164.682 152.95 168.451 153.873C172.22 154.797 176.177 154.607 179.84 153.326C184.359 151.701 188.316 148.507 189.365 142.566C190.99 133.18 189.056 126.101 187.203 121.908C186.306 119.922 185.837 117.77 185.828 115.591C185.818 113.412 186.267 111.256 187.146 109.262C187.788 107.84 188.536 106.735 189.373 106.45C189.373 106.45 172.705 102.744 171.778 107.377C170.852 112.009 157.914 116.674 155.11 108.368L154.346 89.9933C154.304 88.957 153.862 87.9771 153.114 87.259C152.366 86.5409 151.368 86.1403 150.331 86.1411C149.369 86.1383 148.439 86.4816 147.709 87.1083C146.979 87.735 146.5 88.6032 146.357 89.5544Z" fill="black"/>
<path d="M477.301 352.988C477.301 352.988 460.568 336.239 454.416 313.979H455.854L455.164 312.045H455.854L453.676 305.852C459.845 299.79 464.404 293.914 465.143 290.574C466.395 284.95 467.638 254.523 468.394 233.377L469.061 233.539C470.686 230.76 471.027 227.257 470.913 224.08C470.975 220.51 470.515 216.951 469.548 213.515L466.533 183.323C466.243 180.546 465.391 177.856 464.029 175.418C462.666 172.98 460.823 170.845 458.609 169.142L428.052 145.435C429.66 143.266 431.703 141.456 434.05 140.121C435.797 139.194 437.829 138.56 439.007 136.975C441.137 134.107 439.324 129.832 440.779 126.565C441.868 124.127 444.55 122.761 446.118 120.575C449.328 116.097 447.004 109.913 444.607 104.955L430.677 76.1618C426.817 68.1893 422.924 60.1518 417.528 53.1302C401.006 31.6102 369.213 20.907 343.297 30.2367C335.909 32.8942 329.107 37.9979 325.954 45.1821C324.857 47.6852 324.199 50.4158 322.606 52.6345C319.054 57.5837 312.122 58.5183 307.165 62.0779C300.834 66.6534 298.485 75.2679 299.371 83.0291C300.257 90.7902 303.816 97.9582 307.327 104.972C311.017 112.286 314.828 119.82 320.883 125.362C323.711 127.955 327.173 130.36 328.075 134.09C328.847 137.292 327.482 140.592 327.766 143.908C327.885 145.287 328.289 146.626 328.953 147.841C315.275 149.556 305.572 160.917 301.224 177.821C300.956 178.87 300.85 179.447 300.85 179.447L298.924 196.952C298.883 197.708 298.924 198.439 298.924 199.162C298.749 203.101 299.589 207.019 301.362 210.54V272.004L242.848 309.046C234.071 312.947 236.022 344.146 253.576 349.99C271.13 355.833 286.742 318.855 286.742 318.855C297.429 318.14 315.405 303.886 325.068 292.849C326.374 294.957 328.111 296.766 330.164 298.156C323.191 313.874 309.399 346.389 311.602 352.988C312.927 356.971 347.173 357.336 384.191 356.556C385.138 357.082 386.131 357.52 387.158 357.865C391.107 359.181 394.96 358.32 398.535 356.199C438.585 355.053 477.301 352.988 477.301 352.988ZM427.882 233.807C428.694 231.556 431.36 230.329 434.928 229.744V253.45L427.882 233.807ZM424.476 150.507L424.59 150.336L424.476 150.507Z" fill="url(#paint20_linear)"/>
<path d="M336.592 204.177C336.592 204.177 334.739 269.915 332.886 278.253C331.033 286.592 304.198 311.541 290.293 312.508C290.293 312.508 275.478 347.69 258.809 342.139C242.141 336.588 240.288 306.958 248.626 303.252L304.198 268.062V197.691L336.592 204.177Z" fill="#FDB797"/>
<path d="M335.202 284.722C335.202 284.722 311.131 336.572 313.91 344.91C316.689 353.248 471.312 344.91 471.312 344.91C471.312 344.91 442.608 316.206 448.166 284.722H335.202Z" fill="#EB6A2C"/>
<path d="M353.723 131.026C353.723 131.026 357.429 167.134 350.944 175.472C344.458 183.811 376.869 188.476 379.648 188.476C382.427 188.476 412.058 178.293 417.609 175.472C423.159 172.652 427.792 152.327 427.792 152.327C427.792 152.327 400.014 157.886 391.684 125.508L353.723 131.026Z" fill="#FDB797"/>
<path d="M344.02 38.3958C337.006 40.9233 330.537 45.7669 327.546 52.5935C326.506 54.9666 325.88 57.559 324.369 59.672C320.996 64.3694 314.413 65.2552 309.74 68.6116C303.726 72.9595 301.5 81.1352 302.337 88.5144C303.174 95.8936 306.555 102.696 309.887 109.327C313.389 116.292 317.014 123.428 322.76 128.694C325.441 131.132 328.733 133.44 329.586 136.983C330.318 140.023 329.025 143.2 329.294 146.313C329.96 154.009 339.16 157.593 346.84 158.446C350.18 158.82 353.999 158.836 356.356 156.439C357.559 155.204 358.169 153.53 358.924 151.985C360.672 148.449 363.365 145.466 366.705 143.367C370.045 141.268 373.901 140.135 377.846 140.095C381.79 140.055 385.669 141.108 389.051 143.138C392.434 145.168 395.187 148.095 397.007 151.595C398.811 155.057 399.859 159.267 403.135 161.348C408.149 164.598 414.862 160.787 418.576 156.09C422.29 151.392 424.955 145.525 430.23 142.705C431.855 141.819 433.822 141.225 434.943 139.714C436.967 136.991 435.244 132.928 436.626 129.832C437.666 127.499 440.21 126.223 441.697 124.143C444.744 119.892 442.509 114.017 440.258 109.311L427.028 81.9641C423.362 74.3899 419.665 66.7587 414.545 60.0865C398.819 39.7043 368.628 29.5375 344.02 38.3958Z" fill="black"/>
<path opacity="0.1" d="M377.795 181.949C377.795 181.949 413.903 181.949 423.167 148.629L453.562 172.197C455.661 173.824 457.406 175.861 458.691 178.185C459.977 180.508 460.776 183.07 461.039 185.712L463.908 214.384C463.908 214.384 467.158 225.03 463.444 231.515C463.444 231.515 425.02 221.763 424.094 232.905L450.913 307.9C450.913 307.9 409.246 308.826 398.137 301.398C398.137 301.398 352.764 310.655 341.655 300.472C330.545 290.289 319.436 291.215 328.652 268.062C328.652 268.062 310.13 249.541 318.469 223.616C326.807 197.691 318.932 224.079 318.932 224.079C318.932 224.079 300.947 215.286 301.873 198.577L303.726 181.909C303.726 181.909 303.824 181.356 304.084 180.364C309.732 158.422 324.897 146.231 346.222 154.001C352.455 156.26 358.827 153.668 358.827 153.668C358.827 153.668 351.87 183.802 377.795 181.949Z" fill="black"/>
<path d="M377.795 180.097C377.795 180.097 413.903 180.097 423.167 146.776L453.562 170.344C455.661 171.971 457.406 174.009 458.691 176.332C459.977 178.656 460.776 181.217 461.039 183.859L463.908 212.531C463.908 212.531 467.158 223.177 463.444 229.663C463.444 229.663 425.02 219.91 424.094 231.052L450.913 306.047C450.913 306.047 409.246 306.974 398.137 299.546C398.137 299.546 352.764 308.802 341.655 298.619C330.545 288.436 319.436 289.363 328.652 266.209C328.652 266.209 310.13 247.688 318.469 221.763C326.807 195.838 318.932 222.226 318.932 222.226C318.932 222.226 300.947 213.433 301.873 196.765L303.726 180.097C303.726 180.097 303.824 179.544 304.084 178.553C309.732 156.61 324.897 144.42 346.222 152.189C352.455 154.448 358.827 151.856 358.827 151.856C358.827 151.856 351.87 181.95 377.795 180.097Z" fill="#FFBD13"/>
<path d="M463.445 211.58C463.445 211.58 461.592 277.319 459.739 285.657C457.886 293.995 431.034 318.977 417.146 319.912C417.146 319.912 402.33 355.093 385.662 349.542C368.994 343.992 367.141 314.361 375.479 310.655L431.034 275.474V205.079L463.445 211.58Z" fill="#FDB797"/>
<path opacity="0.1" d="M423.663 213.896C423.663 213.896 444.956 228.346 463.485 227.143C463.485 227.143 465.338 202.323 459.779 200.934C454.22 199.544 430.108 200.934 423.663 213.896Z" fill="black"/>
<path d="M423.663 212.97C423.663 212.97 444.956 227.42 463.485 226.217C463.485 226.217 465.338 201.397 459.779 200.008C454.22 198.618 430.108 200.007 423.663 212.97Z" fill="#FFBD13"/>
<path opacity="0.1" d="M393.537 127.32L355.576 132.879C355.576 132.879 356.43 141.234 356.6 150.831C363.98 153.944 372.088 154.913 379.994 153.628C387.9 152.343 395.284 148.856 401.298 143.566C398.096 139.657 395.357 134.374 393.537 127.32Z" fill="black"/>
<path d="M371.318 152.327C394.841 152.327 413.911 133.257 413.911 109.734C413.911 86.2102 394.841 67.1406 371.318 67.1406C347.794 67.1406 328.725 86.2102 328.725 109.734C328.725 133.257 347.794 152.327 371.318 152.327Z" fill="#FDB797"/>
<path opacity="0.1" d="M382.541 101.542C380.727 102.224 378.785 102.501 376.852 102.354C369.321 102.305 361.793 102.035 354.268 101.542C348.579 101.16 342.484 100.485 338.087 96.8361C332.171 91.9599 331.236 82.7197 334.292 75.6655C337.348 68.6114 343.581 63.4102 350.164 59.4117C353.882 57.0666 357.908 55.2504 362.126 54.0155C374.317 50.6997 387.84 54.7712 397.535 62.8981C407.231 71.025 413.415 82.7603 416.69 94.9832C417.82 99.2091 419.275 104.248 423.46 105.548C420.673 110.18 413.87 110.92 408.994 108.596C401.794 105.174 398.104 92.0737 391.643 90.0095C384.435 87.6933 388.628 98.7459 382.541 101.542Z" fill="black"/>
<path d="M382.541 100.615C380.727 101.297 378.785 101.575 376.852 101.428C369.321 101.379 361.793 101.108 354.268 100.615C348.579 100.233 342.484 99.5587 338.087 95.9097C332.171 91.0335 331.236 81.7932 334.292 74.7391C337.348 67.6849 343.581 62.4837 350.164 58.4853C353.88 56.1465 357.903 54.3358 362.118 53.1053C374.309 49.7895 387.832 53.8611 397.527 61.988C407.223 70.1149 413.407 81.8501 416.682 94.073C417.812 98.299 419.267 103.338 423.452 104.638C420.665 109.27 413.862 110.01 408.986 107.686C401.786 104.264 398.096 91.1636 391.635 89.0993C384.435 86.7669 388.628 97.8032 382.541 100.615Z" fill="black"/>
<path opacity="0.1" d="M328.262 265.746C342.149 262.035 356.464 260.166 370.839 260.187L328.262 265.746Z" fill="black"/>
<path opacity="0.1" d="M423.663 215.75C423.663 215.75 409.774 225.933 413.48 231.491L423.663 215.75Z" fill="black"/>
<g opacity="0.7">
<path opacity="0.7" d="M519 316.669H64.373V356.426H90.8342V364.179V481.482H493.481V364.179V356.426H519V316.669Z" fill="url(#paint21_linear)"/>
</g>
<path d="M489 340H95V477H489V340Z" fill="#BABABA"/>
<path opacity="0.1" d="M489.37 347.226H94.9307V369.445H489.37V347.226Z" fill="black"/>
<path d="M514.368 324.081H69.0059V362.041H514.368V324.081Z" fill="#BABABA"/>
<path d="M212.738 314.735H138.116C135.199 314.735 132.834 317.1 132.834 320.017V321.488C132.834 324.406 135.199 326.771 138.116 326.771H212.738C215.655 326.771 218.02 324.406 218.02 321.488V320.017C218.02 317.1 215.655 314.735 212.738 314.735Z" fill="#535461"/>
<g opacity="0.7">
<path opacity="0.7" d="M373.471 180.535H207.618C194.952 180.535 184.684 190.803 184.684 203.469V303.991C184.684 316.657 194.952 326.925 207.618 326.925H373.471C386.138 326.925 396.406 316.657 396.406 303.991V203.469C396.406 190.803 386.138 180.535 373.471 180.535Z" fill="url(#paint22_linear)"/>
</g>
<path d="M367.206 183.233H210.268C198.221 183.233 188.455 192.999 188.455 205.046V305.104C188.455 317.151 198.221 326.917 210.268 326.917H367.206C379.253 326.917 389.019 317.151 389.019 305.104V205.046C389.019 192.999 379.253 183.233 367.206 183.233Z" fill="#3E3F49"/>
<path d="M369.986 183.233H213.047C201 183.233 191.234 192.999 191.234 205.046V305.104C191.234 317.151 201 326.917 213.047 326.917H369.986C382.032 326.917 391.798 317.151 391.798 305.104V205.046C391.798 192.999 382.032 183.233 369.986 183.233Z" fill="#535461"/>
<path d="M300.882 260.577C304.463 260.577 307.367 257.673 307.367 254.092C307.367 250.51 304.463 247.606 300.882 247.606C297.3 247.606 294.396 250.51 294.396 254.092C294.396 257.673 297.3 260.577 300.882 260.577Z" fill="#E0E0E0"/>
<path opacity="0.1" d="M35.6689 342.594C35.6689 342.594 41.1465 350.631 57.3922 353.094L35.6689 342.594Z" fill="black"/>
<defs>
<linearGradient id="paint0_linear" x1="35.6852" y1="415.549" x2="137.93" y2="415.549" gradientUnits="userSpaceOnUse">
<stop stop-color="#808080" stop-opacity="0.25"/>
<stop offset="0.54" stop-color="#808080" stop-opacity="0.12"/>
<stop offset="1" stop-color="#808080" stop-opacity="0.1"/>
</linearGradient>
<linearGradient id="paint1_linear" x1="57604.4" y1="133522" x2="82241.4" y2="133522" gradientUnits="userSpaceOnUse">
<stop stop-color="#808080" stop-opacity="0.25"/>
<stop offset="0.54" stop-color="#808080" stop-opacity="0.12"/>
<stop offset="1" stop-color="#808080" stop-opacity="0.1"/>
</linearGradient>
<linearGradient id="paint2_linear" x1="57604.4" y1="132998" x2="82241.4" y2="132998" gradientUnits="userSpaceOnUse">
<stop stop-color="#808080" stop-opacity="0.25"/>
<stop offset="0.54" stop-color="#808080" stop-opacity="0.12"/>
<stop offset="1" stop-color="#808080" stop-opacity="0.1"/>
</linearGradient>
<linearGradient id="paint3_linear" x1="32657.7" y1="37716.5" x2="39093" y2="37716.5" gradientUnits="userSpaceOnUse">
<stop stop-color="#808080" stop-opacity="0.25"/>
<stop offset="0.54" stop-color="#808080" stop-opacity="0.12"/>
<stop offset="1" stop-color="#808080" stop-opacity="0.1"/>
</linearGradient>
<linearGradient id="paint4_linear" x1="41431.6" y1="170308" x2="60523" y2="170308" gradientUnits="userSpaceOnUse">
<stop stop-color="#808080" stop-opacity="0.25"/>
<stop offset="0.54" stop-color="#808080" stop-opacity="0.12"/>
<stop offset="1" stop-color="#808080" stop-opacity="0.1"/>
</linearGradient>
<linearGradient id="paint5_linear" x1="41131.8" y1="170308" x2="60221.9" y2="170308" gradientUnits="userSpaceOnUse">
<stop stop-color="#808080" stop-opacity="0.25"/>
<stop offset="0.54" stop-color="#808080" stop-opacity="0.12"/>
<stop offset="1" stop-color="#808080" stop-opacity="0.1"/>
</linearGradient>
<linearGradient id="paint6_linear" x1="37696.4" y1="136357" x2="54180.6" y2="136357" gradientUnits="userSpaceOnUse">
<stop stop-color="#808080" stop-opacity="0.25"/>
<stop offset="0.54" stop-color="#808080" stop-opacity="0.12"/>
<stop offset="1" stop-color="#808080" stop-opacity="0.1"/>
</linearGradient>
<linearGradient id="paint7_linear" x1="64271.9" y1="123760" x2="83554.9" y2="123760" gradientUnits="userSpaceOnUse">
<stop stop-color="#808080" stop-opacity="0.25"/>
<stop offset="0.54" stop-color="#808080" stop-opacity="0.12"/>
<stop offset="1" stop-color="#808080" stop-opacity="0.1"/>
</linearGradient>
<linearGradient id="paint8_linear" x1="64567.5" y1="123760" x2="83849.3" y2="123760" gradientUnits="userSpaceOnUse">
<stop stop-color="#808080" stop-opacity="0.25"/>
<stop offset="0.54" stop-color="#808080" stop-opacity="0.12"/>
<stop offset="1" stop-color="#808080" stop-opacity="0.1"/>
</linearGradient>
<linearGradient id="paint9_linear" x1="11318.9" y1="25404.9" x2="12707.1" y2="25404.9" gradientUnits="userSpaceOnUse">
<stop stop-color="#808080" stop-opacity="0.25"/>
<stop offset="0.54" stop-color="#808080" stop-opacity="0.12"/>
<stop offset="1" stop-color="#808080" stop-opacity="0.1"/>
</linearGradient>
<linearGradient id="paint10_linear" x1="9504.21" y1="15657.5" x2="10163.9" y2="15657.5" gradientUnits="userSpaceOnUse">
<stop stop-color="#808080" stop-opacity="0.25"/>
<stop offset="0.54" stop-color="#808080" stop-opacity="0.12"/>
<stop offset="1" stop-color="#808080" stop-opacity="0.1"/>
</linearGradient>
<linearGradient id="paint11_linear" x1="4995.42" y1="35187" x2="5088.12" y2="35187" gradientUnits="userSpaceOnUse">
<stop stop-color="#808080" stop-opacity="0.25"/>
<stop offset="0.54" stop-color="#808080" stop-opacity="0.12"/>
<stop offset="1" stop-color="#808080" stop-opacity="0.1"/>
</linearGradient>
<linearGradient id="paint12_linear" x1="5916.38" y1="37124.9" x2="6206.72" y2="37124.9" gradientUnits="userSpaceOnUse">
<stop stop-color="#808080" stop-opacity="0.25"/>
<stop offset="0.54" stop-color="#808080" stop-opacity="0.12"/>
<stop offset="1" stop-color="#808080" stop-opacity="0.1"/>
</linearGradient>
<linearGradient id="paint13_linear" x1="17449.6" y1="15580.8" x2="19819.4" y2="15580.8" gradientUnits="userSpaceOnUse">
<stop stop-color="#808080" stop-opacity="0.25"/>
<stop offset="0.54" stop-color="#808080" stop-opacity="0.12"/>
<stop offset="1" stop-color="#808080" stop-opacity="0.1"/>
</linearGradient>
<linearGradient id="paint14_linear" x1="26089" y1="14407.9" x2="29903.9" y2="14407.9" gradientUnits="userSpaceOnUse">
<stop stop-color="#808080" stop-opacity="0.25"/>
<stop offset="0.54" stop-color="#808080" stop-opacity="0.12"/>
<stop offset="1" stop-color="#808080" stop-opacity="0.1"/>
</linearGradient>
<linearGradient id="paint15_linear" x1="31696.8" y1="22702.3" x2="41384.3" y2="22702.3" gradientUnits="userSpaceOnUse">
<stop stop-color="#808080" stop-opacity="0.25"/>
<stop offset="0.54" stop-color="#808080" stop-opacity="0.12"/>
<stop offset="1" stop-color="#808080" stop-opacity="0.1"/>
</linearGradient>
<linearGradient id="paint16_linear" x1="46361" y1="29906.4" x2="60212.8" y2="29906.4" gradientUnits="userSpaceOnUse">
<stop stop-color="#808080" stop-opacity="0.25"/>
<stop offset="0.54" stop-color="#808080" stop-opacity="0.12"/>
<stop offset="1" stop-color="#808080" stop-opacity="0.1"/>
</linearGradient>
<linearGradient id="paint17_linear" x1="46219.7" y1="29786.5" x2="60067.2" y2="29786.5" gradientUnits="userSpaceOnUse">
<stop stop-color="#808080" stop-opacity="0.25"/>
<stop offset="0.54" stop-color="#808080" stop-opacity="0.12"/>
<stop offset="1" stop-color="#808080" stop-opacity="0.1"/>
</linearGradient>
<linearGradient id="paint18_linear" x1="29226.2" y1="26516.2" x2="33581.8" y2="26516.2" gradientUnits="userSpaceOnUse">
<stop stop-color="#808080" stop-opacity="0.25"/>
<stop offset="0.54" stop-color="#808080" stop-opacity="0.12"/>
<stop offset="1" stop-color="#808080" stop-opacity="0.1"/>
</linearGradient>
<linearGradient id="paint19_linear" x1="29226.2" y1="26599.5" x2="33581.8" y2="26599.5" gradientUnits="userSpaceOnUse">
<stop stop-color="#808080" stop-opacity="0.25"/>
<stop offset="0.54" stop-color="#808080" stop-opacity="0.12"/>
<stop offset="1" stop-color="#808080" stop-opacity="0.1"/>
</linearGradient>
<linearGradient id="paint20_linear" x1="183645" y1="224792" x2="183645" y2="89466.4" gradientUnits="userSpaceOnUse">
<stop stop-color="#808080" stop-opacity="0.25"/>
<stop offset="0.54" stop-color="#808080" stop-opacity="0.12"/>
<stop offset="1" stop-color="#808080" stop-opacity="0.1"/>
</linearGradient>
<linearGradient id="paint21_linear" x1="263566" y1="125282" x2="263566" y2="91857.4" gradientUnits="userSpaceOnUse">
<stop stop-color="#808080" stop-opacity="0.25"/>
<stop offset="0.54" stop-color="#808080" stop-opacity="0.12"/>
<stop offset="1" stop-color="#808080" stop-opacity="0.1"/>
</linearGradient>
<linearGradient id="paint22_linear" x1="122602" y1="83335.8" x2="122602" y2="56966.6" gradientUnits="userSpaceOnUse">
<stop stop-color="#808080" stop-opacity="0.25"/>
<stop offset="0.54" stop-color="#808080" stop-opacity="0.12"/>
<stop offset="1" stop-color="#808080" stop-opacity="0.1"/>
</linearGradient>
</defs>
</svg>
